<svg width="17" height="22" viewBox="0 0 17 22" fill="none" xmlns="http://www.w3.org/2000/svg">
<path d="M6.92682 19.4056C6.83769 19.317 6.69278 19.2502 6.56612 19.256C6.43424 19.2622 6.29767 19.3055 6.20541 19.4056C6.10794 19.5124 6.07406 19.624 6.05582 19.7663C6.03444 19.9357 6.03861 20.1103 6.05217 20.2807C6.08761 20.7071 6.18717 21.1189 6.39619 21.4958C6.5265 21.7293 6.86635 21.8252 7.09466 21.6787C7.33079 21.526 7.41627 21.2305 7.27814 20.9808C7.25573 20.9406 7.23592 20.8995 7.21455 20.8593C7.21142 20.8526 7.20934 20.8473 7.20725 20.8427C7.20465 20.8374 7.20256 20.8317 7.20048 20.8265C7.17024 20.7452 7.14522 20.6623 7.12437 20.5779C7.10613 20.5038 7.09206 20.4293 7.07955 20.3542C7.07902 20.3485 7.0785 20.3417 7.07746 20.3339C7.07381 20.2985 7.07068 20.263 7.0686 20.2281C7.05922 20.0749 7.05661 19.918 7.0759 19.7658C7.09101 19.6464 7.00813 19.4874 6.92682 19.4056Z" fill="#208041"/>
<path d="M0.445168 14.7091C0.554109 15.149 0.687548 15.5843 0.855389 16.006C1.01333 16.4011 1.18795 16.7967 1.43397 17.1454C1.65342 17.4576 1.91508 17.7198 2.24764 17.907C3.3261 18.5127 4.61567 18.7441 5.82965 18.8635C6.0762 18.888 6.32223 18.9052 6.5693 18.9177C6.74183 18.9265 6.92844 18.8155 7.00975 18.6649C7.1286 18.4428 7.23389 18.2135 7.33762 17.9841C7.65297 17.2898 7.93914 16.582 8.20445 15.8668C8.23312 15.7886 8.25449 15.7308 8.28316 15.6531C8.43901 15.6182 8.39523 15.6302 8.4484 15.6156C9.50444 15.3346 10.5282 14.8759 11.3444 14.1363C12.1023 13.4487 12.6126 12.5167 12.8274 11.5196C12.9681 10.8665 13.0072 10.2087 12.9155 9.5472C12.7315 8.21541 11.9997 7.07388 11.2214 6.01054C10.7831 5.41006 10.3624 4.79655 9.97096 4.16428C9.87661 4.01208 9.7807 3.86091 9.6947 3.70402C9.66082 3.64303 9.63006 3.58048 9.60087 3.51741C9.59723 3.51012 9.5941 3.5023 9.59097 3.495C9.57846 3.46373 9.56647 3.43297 9.555 3.40222C9.50809 3.27399 9.46952 3.14316 9.43668 3.01128C9.7708 3.01545 10.1065 3.0363 10.438 3.06236C11.3325 3.13378 12.2306 3.25627 13.087 3.53305C13.6332 3.70975 14.289 3.92868 14.6856 4.36496C14.9468 4.65113 15.1079 5.01391 15.2569 5.36732C15.2455 5.3496 15.2809 5.4184 15.2773 5.40746C15.6588 6.36811 15.7724 7.37464 15.8683 8.39524C15.9252 8.99468 15.9617 9.5962 15.9752 10.1982C15.9898 10.8128 15.9804 11.4273 15.945 12.0408C15.8819 13.1282 15.7662 14.2499 15.4618 15.2992C15.2642 15.9799 14.8295 16.6002 14.2332 16.999C13.5332 17.4665 12.6147 17.6041 11.8016 17.7428C10.8732 17.9007 9.93239 17.9784 8.99206 18.0227C8.71371 18.0362 8.43485 18.0425 8.15598 18.0414C7.88858 18.0409 7.63369 18.2771 7.64568 18.5517C7.65871 18.8291 7.87033 19.061 8.15598 19.0615C9.31575 19.0662 10.4745 18.9396 11.6186 18.7582C12.3369 18.644 13.0526 18.5054 13.7599 18.3354C14.4078 18.1801 15.0317 17.8194 15.4904 17.3367C16.1248 16.6685 16.4303 15.7844 16.6059 14.8962C17.0943 12.4224 17.1027 9.87611 16.7743 7.38142C16.633 6.31182 16.4042 5.27245 15.8845 4.31805C15.4289 3.48145 14.7159 3.06184 13.8516 2.72824C13.0213 2.4082 12.1336 2.24609 11.2537 2.12933C10.6137 2.04489 9.96575 1.99433 9.3194 1.99381C9.31888 1.90989 9.31992 1.82701 9.32305 1.74361C9.32878 1.59714 9.33921 1.45171 9.35537 1.30628C9.35797 1.287 9.36058 1.26823 9.36266 1.24843C9.36371 1.24061 9.36527 1.23279 9.36631 1.22549C9.39446 1.04931 9.43564 0.879904 9.47734 0.706328C9.5451 0.42694 9.4518 0.0865655 9.13592 0.0141121C8.86435 -0.047395 8.586 0.0959472 8.50834 0.370123C8.17735 1.54397 8.20914 2.90078 8.71528 4.01885C8.85393 4.32535 9.04522 4.60995 9.22505 4.89298C9.42208 5.20417 9.62589 5.51118 9.83543 5.81403C10.2196 6.36916 10.6361 6.90239 10.9963 7.47316C11.4508 8.19196 11.8235 8.96862 11.9152 9.82346C11.9908 10.5334 11.8834 11.2564 11.6061 11.9137C11.1573 12.9765 10.2842 13.8193 9.23079 14.2796L9.21828 14.2848C9.19586 14.2942 9.17293 14.3036 9.14999 14.3124C9.08953 14.3369 9.02906 14.3604 8.96756 14.3833C8.87634 14.4172 8.7846 14.449 8.69234 14.4792C8.90866 13.8282 9.10986 13.172 9.29907 12.5131C9.43616 12.0356 9.57429 11.5582 9.67593 11.0713C9.79947 10.4776 9.88756 9.87194 9.92248 9.26573C10.0147 7.68166 9.51435 5.62638 7.57635 5.58833C6.64957 5.57009 5.76293 6.08925 5.19738 6.82421C4.63182 7.55864 4.36025 8.4849 4.27373 9.40751C4.1554 10.6762 4.37329 11.9741 4.89922 13.1349C5.20207 13.8027 5.6149 14.436 6.18983 14.8905C6.42022 15.0724 6.7632 15.2199 6.98682 15.0302C7.14059 14.8994 7.1531 14.658 7.07595 14.4719C6.99881 14.2853 6.8513 14.1389 6.71577 13.9898C5.9068 13.1032 5.39337 11.9496 5.27765 10.7539C5.16767 9.61705 5.36887 7.93915 6.27636 7.14217C6.9863 6.51928 8.15493 6.28263 8.62093 7.32617C8.97329 8.11638 8.94515 9.11352 8.83933 9.95482C8.83829 9.96107 8.83777 9.96785 8.83673 9.9741C8.8336 10.0012 8.82943 10.0278 8.82578 10.0549C8.81535 10.1216 8.80545 10.1883 8.79451 10.2551C8.77418 10.3791 8.75228 10.5026 8.72831 10.6246C8.66732 10.941 8.59122 11.2527 8.50626 11.5639C8.18673 12.7357 7.82915 13.8981 7.4231 15.0432C7.31781 15.3377 7.18854 15.6797 7.06918 15.9898C6.91645 16.3823 6.76425 16.7769 6.59536 17.1626C6.49007 17.4034 6.38217 17.6432 6.2675 17.8799C6.25238 17.9117 5.81245 17.8428 5.75146 17.8361C5.14421 17.7699 4.52757 17.6823 3.93335 17.5338C3.40481 17.4014 2.83717 17.2059 2.45249 16.8004C2.4134 16.7597 2.37691 16.717 2.34303 16.6721C2.34876 16.6779 2.3717 16.7034 2.37378 16.7029C2.34928 16.6726 2.32374 16.6429 2.30185 16.6106C1.47046 15.406 1.24216 13.8652 1.10038 12.4412C0.991957 11.3559 0.971627 10.2613 1.04408 9.17295C1.14885 7.59878 1.23069 5.91411 2.15799 4.57294C2.51608 4.05586 3.20726 3.77595 3.78167 3.5956C4.23359 3.45382 4.69802 3.34332 5.16193 3.25054C5.27713 3.22708 5.39232 3.20571 5.50804 3.18642C5.57268 3.17548 5.63679 3.16505 5.70142 3.15515L5.77909 3.14368C5.79212 3.14212 5.80463 3.14003 5.8187 3.13847C6.07829 3.10824 6.33839 3.08165 6.60005 3.06862C6.8539 3.05559 7.14215 3.03578 7.39652 3.0264C7.67226 3.01649 7.88336 2.82051 7.87138 2.55102C7.85887 2.26798 7.64724 2.04958 7.36108 2.04072C6.27584 2.00788 5.19842 2.17572 4.14759 2.43635C3.2255 2.66465 2.25181 2.99304 1.57992 3.69829C1.00551 4.29981 0.679208 5.09419 0.481134 5.89117C0.0250428 7.72179 -0.0640905 9.67803 0.038074 11.5577C0.0943687 12.6163 0.189757 13.6765 0.445168 14.7091ZM11.615 12.0158C11.6118 12.0273 11.6066 12.0382 11.6014 12.0497C11.6092 12.0299 11.6165 12.0117 11.615 12.0158ZM8.67201 7.30584C8.67201 7.30636 8.67149 7.3074 8.67149 7.30792C8.67149 7.30688 8.67201 7.30636 8.67201 7.30584ZM8.67201 7.31157L8.69495 7.36109C8.73143 7.44032 8.67566 7.34024 8.67201 7.31157Z" fill="#208041"/>
</svg>
